PathFileType  4	(X/Y/Z) C:\Users\antoi\Documents\MyRepositories\mobilecap\ResultsAnalysis
DataRate	CameraRate	NumFrames	NumMarkers	Units	OrigDataRate	OrigDataStartFrame	OrigNumFrames
100.0	100.0	4	51	mm	100.0	1	301
Frame#	Time	r_knee			r_shank_antsup			r_ankle			r_calc			r_5meta			r_toe			L_knee			L_shank_antsup			L_ankle			L_calc			L_5meta			L_toe			r_sh2			r_sh3			r_sh4			L_sh2			L_sh3			r_thigh1			r_thigh2			r_thigh3			r_thigh4			r_thigh5			L_thigh1			L_thigh2			L_thigh3			L_thigh4			r.ASIS			r.PSIS			L.ASIS			L.PSIS			C7			R_Shoulder			L_Shoulder			R_Sternum			L_Sternum			R_humerus			R_elbow_med			R_elbow_lat			R_forearm			R_wrist_radius			R_wrist_ulna			L_humerus			L_elbow_med			L_elbow_lat			L_forearm			L_wrist_radius			L_wrist_ulna			R_HJC			L_HJC			R_HJC_reg			L_HJC_reg			
		X1	Y1	Z1	X2	Y2	Z2	X3	Y3	Z3	X4	Y4	Z4	X5	Y5	Z5	X6	Y6	Z6	X7	Y7	Z7	X8	Y8	Z8	X9	Y9	Z9	X10	Y10	Z10	X11	Y11	Z11	X12	Y12	Z12	X13	Y13	Z13	X14	Y14	Z14	X15	Y15	Z15	X16	Y16	Z16	X17	Y17	Z17	X18	Y18	Z18	X19	Y19	Z19	X20	Y20	Z20	X21	Y21	Z21	X22	Y22	Z22	X23	Y23	Z23	X24	Y24	Z24	X25	Y25	Z25	X26	Y26	Z26	X27	Y27	Z27	X28	Y28	Z28	X29	Y29	Z29	X30	Y30	Z30	X31	Y31	Z31	X32	Y32	Z32	X33	Y33	Z33	X34	Y34	Z34	X35	Y35	Z35	X36	Y36	Z36	X37	Y37	Z37	X38	Y38	Z38	X39	Y39	Z39	X40	Y40	Z40	X41	Y41	Z41	X42	Y42	Z42	X43	Y43	Z43	X44	Y44	Z44	X45	Y45	Z45	X46	Y46	Z46	X47	Y47	Z47	X48	Y48	Z48	X49	Y49	Z49	X50	Y50	Z50	X51	Y51	Z51	

1	0.00000000	-1192.30563	806.48432	-422.45147	-1228.66025	760.21308	-392.70293	-1239.96362	405.95087	-457.00351	-1296.24829	364.97006	-511.71701	-1118.58387	347.42888	-413.61868	-1076.41737	368.97834	-467.95130	-1193.17544	805.56404	-748.39761	-1174.43800	718.92847	-755.49530	-1241.92334	405.75629	-714.26776	-1300.89771	369.34885	-668.17205	-1123.93005	351.82626	-737.28680	-1079.28904	370.34809	-682.52587	-1234.91842	645.59340	-391.91211	-1159.54536	759.75729	-429.50990	-1166.25623	646.34386	-440.88168	-1259.79371	734.94122	-770.90430	-1269.28958	613.35252	-763.43819	-1141.92640	1099.61428	-392.57699	-1146.51601	985.43468	-385.55408	-1099.46901	964.45807	-408.39147	-1082.07704	1090.54251	-483.87661	-1078.07948	980.67610	-471.96528	-1125.52821	1127.98926	-758.57269	-1136.87981	984.52049	-771.15937	-1240.84682	1131.12329	-762.89100	-1249.06312	990.66985	-747.87312	-1088.39491	1276.82429	-457.41285	-1280.18567	1310.51652	-532.76417	-1089.90675	1264.58262	-695.44451	-1281.58527	1310.74077	-631.61707	-1228.94940	1786.90517	-593.78872	-1181.47494	1750.30227	-433.84910	-1195.88260	1736.22140	-746.26279	-1133.31112	1682.32409	-577.34324	-1134.82699	1678.28090	-609.21606	-1167.64664	1514.67704	-349.35266	-1234.50016	1423.26587	-364.41893	-1189.11323	1425.83904	-320.48836	-1113.74929	1302.30665	-329.55777	-1071.67906	1211.50374	-362.25983	-1092.08144	1201.84480	-324.18720	-1202.54721	1503.38442	-826.70335	-1252.17044	1398.72440	-786.27075	-1229.12634	1404.10622	-842.06841	-1148.55862	1284.11373	-852.08721	-1095.77269	1190.54778	-826.99168	-1129.20679	1175.84900	-852.43245	-1164.54629	1195.08192	-490.88377	-1177.24528	1197.06077	-681.12152	-1158.25728	1199.20015	-489.64778	-1160.48433	1199.55698	-646.94328	
2	0.01000000	-1192.26590	806.50506	-422.42129	-1228.86604	760.06639	-392.60984	-1239.96962	405.95576	-457.00071	-1296.25949	364.94581	-511.72299	-1118.53044	347.51281	-413.67050	-1076.44312	368.96340	-467.99870	-1193.21014	805.54975	-748.41125	-1174.40087	718.86672	-755.47194	-1241.94685	405.75456	-714.26990	-1300.91403	369.31266	-668.16147	-1123.90685	351.75974	-737.16512	-1079.34529	370.28138	-682.43375	-1234.91415	645.59768	-391.91016	-1159.49354	759.66619	-429.49861	-1166.19794	646.32790	-440.86362	-1259.81919	734.93737	-770.94658	-1269.30242	613.33787	-763.44234	-1141.96536	1099.59407	-392.53118	-1146.39421	985.37651	-385.54361	-1099.40958	964.41806	-408.48404	-1082.00269	1090.49678	-483.55931	-1078.07172	980.63810	-471.91640	-1125.38673	1128.07928	-758.34949	-1136.93039	984.53034	-771.14174	-1240.87923	1131.10512	-762.89743	-1249.06944	990.63970	-748.01280	-1088.42276	1276.75536	-457.40384	-1280.12671	1310.53762	-532.78253	-1089.92709	1264.53013	-695.43591	-1281.52197	1310.77244	-631.50700	-1228.61570	1786.88597	-593.92279	-1181.00850	1750.46567	-433.72222	-1195.39579	1736.29291	-746.48369	-1132.95877	1682.36328	-577.35122	-1134.45799	1678.26356	-609.21590	-1167.50292	1514.81073	-349.14251	-1234.43498	1423.27152	-364.37690	-1189.04615	1425.88496	-320.45377	-1113.70072	1302.29837	-329.65570	-1071.39003	1211.61180	-362.33646	-1092.07964	1201.81190	-324.38258	-1202.28199	1503.44871	-826.84026	-1252.00133	1398.73031	-786.35752	-1228.87834	1404.13352	-842.08294	-1148.34470	1284.13910	-852.01564	-1095.60003	1190.52395	-826.75164	-1129.01972	1175.77928	-852.05277	-1164.57186	1195.04593	-490.86662	-1177.28140	1197.04911	-681.10338	-1158.30278	1199.16177	-489.64867	-1160.52587	1199.53599	-646.94363	
3	0.02000000	-1192.20659	806.50580	-422.40327	-1228.15776	760.57980	-392.51319	-1239.97008	405.94541	-456.99925	-1296.26046	364.92729	-511.72929	-1118.52218	347.56179	-413.69456	-1076.47105	368.98274	-468.01525	-1193.24746	805.54153	-748.41056	-1174.44810	718.87442	-755.47754	-1241.95265	405.74711	-714.27972	-1300.92484	369.28601	-668.15133	-1123.91241	351.74993	-737.16315	-1079.38836	370.25747	-682.44002	-1234.89606	645.59315	-391.91104	-1159.44431	759.61588	-429.51425	-1166.15629	646.30021	-440.87046	-1259.84433	734.93630	-771.00064	-1269.33413	613.30360	-763.45582	-1141.93284	1099.57442	-392.49975	-1146.32396	985.31454	-385.48782	-1099.40496	964.32869	-408.50585	-1081.99730	1090.49164	-483.56478	-1078.07701	980.64404	-471.93081	-1125.52989	1128.05243	-758.46449	-1137.00157	984.52794	-771.10783	-1240.90900	1131.08704	-762.90393	-1249.18879	990.67768	-747.50761	-1088.40884	1276.69734	-457.39838	-1280.11168	1310.54260	-532.76500	-1089.94062	1264.49111	-695.42892	-1281.57418	1310.82405	-631.38961	-1228.23097	1786.88199	-594.00217	-1180.56822	1750.52141	-433.71442	-1194.89323	1736.33148	-746.60645	-1132.57028	1682.39937	-577.35832	-1134.10081	1678.25076	-609.12786	-1167.35587	1514.92736	-348.93186	-1234.39265	1423.33180	-364.48749	-1188.98597	1425.97819	-320.39983	-1113.65627	1302.37302	-329.72484	-1071.08721	1211.73922	-362.43656	-1092.03574	1201.87649	-324.56357	-1202.00778	1503.50453	-826.97311	-1251.82843	1398.73878	-786.42513	-1228.65595	1404.14533	-842.08174	-1148.09910	1284.13909	-851.91275	-1095.37206	1190.53454	-826.52109	-1128.79231	1175.77214	-851.78059	-1164.59381	1195.01569	-490.84859	-1177.34866	1197.05102	-681.08198	-1158.26307	1199.08730	-489.62869	-1160.59553	1199.53611	-646.92036	
4	0.03000000	-1192.14052	806.43967	-422.43761	-1227.68423	760.87400	-392.51278	-1239.96406	405.92976	-457.00440	-1296.25846	364.91100	-511.73800	-1118.53387	347.56846	-413.68479	-1076.49376	369.01490	-468.01013	-1193.29421	805.54331	-748.37823	-1174.52743	718.90453	-755.49181	-1241.95194	405.73300	-714.27955	-1300.92149	369.27322	-668.15801	-1123.92834	351.76697	-737.21571	-1079.40998	370.25593	-682.50833	-1234.87350	645.58278	-391.91498	-1159.39655	759.58397	-429.52650	-1166.14088	646.22541	-440.91034	-1259.87143	734.93103	-771.03228	-1269.38774	613.25147	-763.43085	-1141.86482	1099.59499	-392.49371	-1146.31171	985.30438	-385.45753	-1099.41275	964.29824	-408.46730	-1082.05179	1090.50475	-483.69113	-1078.10028	980.64801	-471.95851	-1125.91299	1127.94016	-758.86408	-1137.06419	984.52594	-771.09882	-1240.94205	1131.07420	-762.91635	-1249.37254	990.79022	-746.61542	-1088.37857	1276.65402	-457.38835	-1280.13639	1310.54342	-532.73357	-1089.95339	1264.46635	-695.43561	-1281.65325	1310.82335	-631.34344	-1227.79716	1786.89478	-594.03791	-1180.11227	1750.52150	-433.81549	-1194.37141	1736.35637	-746.60646	-1132.15388	1682.40456	-577.37803	-1133.72526	1678.22074	-608.99853	-1167.19915	1515.10245	-348.63489	-1234.38754	1423.35750	-364.71597	-1189.02864	1426.02359	-320.40359	-1113.61425	1302.48028	-329.77497	-1070.74129	1211.96762	-362.62088	-1092.02774	1201.97180	-324.84194	-1201.70314	1503.56767	-827.12424	-1251.65400	1398.80798	-786.55141	-1228.45910	1404.15758	-842.10092	-1147.83131	1284.11714	-851.77289	-1095.06684	1190.60827	-826.20975	-1128.45887	1175.81269	-851.62380	-1164.60695	1194.99107	-490.83855	-1177.40140	1197.03953	-681.06915	-1158.23805	1199.06794	-489.58183	-1160.65767	1199.51440	-646.88290	
